<?xml version="1.0" standalone="no"?>
<!DOCTYPE svg PUBLIC "-//W3C//DTD SVG 20010904//EN"
 "http://www.w3.org/TR/2001/REC-SVG-20010904/DTD/svg10.dtd">
<svg version="1.0" xmlns="http://www.w3.org/2000/svg"
 width="100.000000pt" height="100.000000pt" viewBox="0 0 100.000000 100.000000"
 preserveAspectRatio="xMidYMid meet">

<g transform="translate(0.000000,100.000000) scale(0.100000,-0.100000)"
fill="#000000" stroke="none">
<path d="M309 911 l-24 -19 -3 -381 -3 -381 26 -26 25 -25 171 3 c161 3 172 4
188 25 16 19 18 55 23 330 6 359 1 442 -26 472 -18 20 -29 21 -186 21 -150 0
-170 -2 -191 -19z m373 -25 c24 -53 15 -56 -187 -56 l-185 0 0 33 c0 19 3 37
7 40 3 4 84 7 180 7 l173 0 12 -24z m-297 -103 l0 -28 148 -3 147 -3 0 -284 0
-285 -185 0 -185 0 0 284 c0 281 0 284 21 289 17 5 20 11 17 31 -4 21 -1 26
16 26 17 0 22 -6 21 -27z"/>
<path d="M470 870 c0 -5 16 -10 35 -10 19 0 35 5 35 10 0 6 -16 10 -35 10 -19
0 -35 -4 -35 -10z"/>
<path d="M640 870 c0 -5 5 -10 10 -10 6 0 10 5 10 10 0 6 -4 10 -10 10 -5 0
-10 -4 -10 -10z"/>
<path d="M370 695 c0 -13 21 -15 130 -15 109 0 130 2 130 15 0 13 -21 15 -130
15 -109 0 -130 -2 -130 -15z"/>
<path d="M370 610 c0 -33 3 -40 20 -40 17 0 20 7 20 40 0 33 -3 40 -20 40 -17
0 -20 -7 -20 -40z"/>
<path d="M430 610 c0 -33 3 -40 20 -40 17 0 20 7 20 40 0 33 -3 40 -20 40 -17
0 -20 -7 -20 -40z"/>
<path d="M557 643 c-4 -3 -7 -21 -7 -40 0 -26 4 -33 20 -33 17 0 20 7 20 40 0
38 -14 52 -33 33z"/>
<path d="M614 636 c-3 -7 -4 -42 -2 -77 2 -51 6 -64 21 -67 15 -3 17 6 17 77
0 66 -3 81 -15 81 -9 0 -18 -6 -21 -14z"/>
<path d="M490 540 c0 -43 3 -50 20 -50 17 0 20 7 20 50 0 43 -3 50 -20 50 -17
0 -20 -7 -20 -50z"/>
<path d="M370 520 c0 -23 4 -30 20 -30 16 0 20 7 20 30 0 23 -4 30 -20 30 -16
0 -20 -7 -20 -30z"/>
<path d="M430 520 c0 -23 4 -30 20 -30 16 0 20 7 20 30 0 23 -4 30 -20 30 -16
0 -20 -7 -20 -30z"/>
<path d="M550 520 c0 -23 4 -30 20 -30 16 0 20 7 20 30 0 23 -4 30 -20 30 -16
0 -20 -7 -20 -30z"/>
<path d="M554 446 c-9 -24 0 -51 19 -54 14 -3 17 4 17 32 0 26 -4 36 -15 36
-9 0 -18 -6 -21 -14z"/>
<path d="M621 451 c-18 -12 -10 -55 12 -59 13 -3 17 3 17 27 0 33 -9 44 -29
32z"/>
<path d="M370 414 c0 -33 33 -30 38 4 3 17 -2 22 -17 22 -16 0 -21 -6 -21 -26z"/>
<path d="M430 414 c0 -33 33 -30 38 4 3 17 -2 22 -17 22 -16 0 -21 -6 -21 -26z"/>
<path d="M490 415 c0 -18 5 -25 20 -25 15 0 20 7 20 25 0 18 -5 25 -20 25 -15
0 -20 -7 -20 -25z"/>
<path d="M370 330 c0 -23 4 -30 20 -30 16 0 20 7 20 30 0 23 -4 30 -20 30 -16
0 -20 -7 -20 -30z"/>
<path d="M430 330 c0 -23 4 -30 20 -30 16 0 20 7 20 30 0 23 -4 30 -20 30 -16
0 -20 -7 -20 -30z"/>
<path d="M490 330 c0 -23 4 -30 20 -30 16 0 20 7 20 30 0 23 -4 30 -20 30 -16
0 -20 -7 -20 -30z"/>
<path d="M554 346 c-3 -7 -4 -38 -2 -67 2 -42 7 -55 21 -57 15 -3 17 5 17 67
0 57 -3 71 -15 71 -9 0 -18 -6 -21 -14z"/>
<path d="M614 346 c-3 -7 -4 -38 -2 -67 2 -42 7 -55 21 -57 15 -3 17 5 17 67
0 57 -3 71 -15 71 -9 0 -18 -6 -21 -14z"/>
<path d="M377 284 c-4 -4 -7 -20 -7 -36 0 -22 5 -28 21 -28 17 0 20 5 17 32
-3 31 -17 45 -31 32z"/>
<path d="M437 284 c-4 -4 -7 -20 -7 -36 0 -22 5 -28 21 -28 17 0 20 5 17 32
-3 31 -17 45 -31 32z"/>
<path d="M497 284 c-4 -4 -7 -20 -7 -36 0 -22 5 -28 21 -28 17 0 20 5 17 32
-3 31 -17 45 -31 32z"/>
</g>
</svg>
